<svg xmlns="http://www.w3.org/2000/svg" viewBox="0 0 1037 120" width="1037" height="120" role="img" aria-label="Master proxy: z internetu do boxu"><title>Master proxy: z internetu do boxu</title><style>
/* The handbook's Docusaurus theme: the LosOS desktop theme
   (handbook/src/css/derisk-theme.css, derisk-light and derisk-dark). */
.bg{fill:#f8fafc}.node{fill:#edf1f6;stroke:#bbc6d4;stroke-width:1}
.key{fill:#dcebef;stroke:#3d98a3;stroke-width:1.25}
.zone{fill:none;stroke:#bbc6d4;stroke-width:1;stroke-dasharray:6 5}
text{font-family:Ubuntu,ui-sans-serif,system-ui,-apple-system,'Segoe UI',Roboto,'Helvetica Neue',Arial,sans-serif;font-weight:300;fill:#0f172a;font-size:14px}
.zl{fill:#636b79;font-size:12px;font-weight:400}
.lbl{fill:#636b79;font-size:12px;paint-order:stroke;stroke:#f8fafc;stroke-width:6px;stroke-linejoin:round}
.mono{font-family:Hack,ui-monospace,SFMono-Regular,'SF Mono',Menlo,Consolas,'Liberation Mono',monospace;font-weight:400;font-size:12px}
.ln{stroke:#636b79;stroke-width:1.25;fill:none}.ah{fill:#636b79}
.tun{stroke:#3d98a3;stroke-width:5;fill:none}.tun2{stroke:#f8fafc;stroke-width:2;fill:none}.aht{fill:#3d98a3}
@media (prefers-color-scheme:dark){.bg{fill:#0a0e12}.node{fill:#141b22;stroke:#2c3a47}
.key{fill:#13272c;stroke:#48b3c0}.zone{stroke:#2c3a47}text{fill:#e2e8f0}.zl,.lbl{fill:#949ba4}.lbl{stroke:#0a0e12}
.ln{stroke:#949ba4}.ah{fill:#949ba4}.tun{stroke:#48b3c0}.tun2{stroke:#0a0e12}.aht{fill:#48b3c0}}
</style><rect class="bg" width="1037" height="120" rx="8"/><rect class="node" x="30.0" y="48.0" width="90.7" height="36" rx="6"/><text x="75.36" y="71" text-anchor="middle">internet</text><rect class="node" x="190.7" y="48.0" width="177.0" height="36" rx="6"/><text x="279.2" y="71" text-anchor="middle">Traefik (VPS, :443)</text><rect class="key" x="437.7" y="48.0" width="137.8" height="36" rx="6"/><text x="506.56" y="71" text-anchor="middle">rathole server</text><rect class="key" x="685.4" y="48.0" width="184.8" height="36" rx="6"/><text x="777.84" y="71" text-anchor="middle">rathole klient (box)</text><rect class="node" x="940.2" y="48.0" width="67.2" height="36" rx="6"/><text x="973.84" y="71" text-anchor="middle">nginx</text><path class="ln" d="M120.7,66.0 L183.5,66.0"/><polygon class="ah" points="190.7,66.0 181.7,61.5 181.7,70.5"/><path class="ln" d="M367.7,66.0 L430.5,66.0"/><polygon class="ah" points="437.7,66.0 428.7,61.5 428.7,70.5"/><path class="ln" d="M870.2,66.0 L933.0,66.0"/><polygon class="ah" points="940.2,66.0 931.2,61.5 931.2,70.5"/><path class="tun" d="M585.4,66 L685.4,66"/><path class="tun2" d="M585.4,66 L685.4,66"/><polygon class="aht" points="575.4,66 588.4,58 588.4,74"/><text class="lbl" x="630.4" y="52" text-anchor="middle">tunel</text></svg>
